<mxfile host="app.diagrams.net" modified="2021-05-14T08:20:39.458Z" agent="5.0 (X11; Linux x86_64) AppleWebKit/537.36 (KHTML, like Gecko) Chrome/89.0.4389.114 Safari/537.36" etag="PlZRSZqStiQnxXLRLj_b" version="14.6.13" type="github">
  <diagram id="Jl1yVP1GuZlKotJ1YlOT" name="Page-1">
    <mxGraphModel dx="782" dy="458" grid="1" gridSize="10" guides="1" tooltips="1" connect="1" arrows="1" fold="1" page="1" pageScale="1" pageWidth="827" pageHeight="1169" math="0" shadow="0">
      <root>
        <mxCell id="0" />
        <mxCell id="1" parent="0" />
        <mxCell id="AH76wavVF_hNOm2PVudr-3" value="" style="edgeStyle=orthogonalEdgeStyle;rounded=0;orthogonalLoop=1;jettySize=auto;html=1;" edge="1" parent="1" source="AH76wavVF_hNOm2PVudr-1" target="AH76wavVF_hNOm2PVudr-2">
          <mxGeometry relative="1" as="geometry" />
        </mxCell>
        <mxCell id="AH76wavVF_hNOm2PVudr-1" value="直接风格PCF" style="shape=document;whiteSpace=wrap;html=1;boundedLbl=1;" vertex="1" parent="1">
          <mxGeometry x="140" y="180" width="120" height="80" as="geometry" />
        </mxCell>
        <mxCell id="AH76wavVF_hNOm2PVudr-5" value="" style="edgeStyle=orthogonalEdgeStyle;rounded=0;orthogonalLoop=1;jettySize=auto;html=1;" edge="1" parent="1" source="AH76wavVF_hNOm2PVudr-2" target="AH76wavVF_hNOm2PVudr-4">
          <mxGeometry relative="1" as="geometry" />
        </mxCell>
        <mxCell id="AH76wavVF_hNOm2PVudr-2" value="CPS形式PCF" style="shape=document;whiteSpace=wrap;html=1;boundedLbl=1;" vertex="1" parent="1">
          <mxGeometry x="340" y="180" width="120" height="80" as="geometry" />
        </mxCell>
        <mxCell id="AH76wavVF_hNOm2PVudr-4" value="SSA目标语言" style="shape=document;whiteSpace=wrap;html=1;boundedLbl=1;" vertex="1" parent="1">
          <mxGeometry x="540" y="180" width="120" height="80" as="geometry" />
        </mxCell>
        <mxCell id="AH76wavVF_hNOm2PVudr-6" value="验证转换算法F" style="rounded=0;whiteSpace=wrap;html=1;" vertex="1" parent="1">
          <mxGeometry x="240" y="290" width="120" height="60" as="geometry" />
        </mxCell>
        <mxCell id="AH76wavVF_hNOm2PVudr-7" value="验证转换算法G" style="rounded=0;whiteSpace=wrap;html=1;" vertex="1" parent="1">
          <mxGeometry x="440" y="290" width="120" height="60" as="geometry" />
        </mxCell>
        <mxCell id="AH76wavVF_hNOm2PVudr-8" value="组合验证" style="ellipse;whiteSpace=wrap;html=1;" vertex="1" parent="1">
          <mxGeometry x="330" y="370" width="130" height="60" as="geometry" />
        </mxCell>
        <mxCell id="AH76wavVF_hNOm2PVudr-12" value="" style="endArrow=classic;html=1;exitX=0.5;exitY=0;exitDx=0;exitDy=0;" edge="1" parent="1" source="AH76wavVF_hNOm2PVudr-6">
          <mxGeometry width="50" height="50" relative="1" as="geometry">
            <mxPoint x="290" y="290" as="sourcePoint" />
            <mxPoint x="300" y="220" as="targetPoint" />
          </mxGeometry>
        </mxCell>
        <mxCell id="AH76wavVF_hNOm2PVudr-13" value="" style="endArrow=classic;html=1;exitX=0.5;exitY=0;exitDx=0;exitDy=0;" edge="1" parent="1">
          <mxGeometry width="50" height="50" relative="1" as="geometry">
            <mxPoint x="500" y="290" as="sourcePoint" />
            <mxPoint x="500" y="220" as="targetPoint" />
          </mxGeometry>
        </mxCell>
        <mxCell id="AH76wavVF_hNOm2PVudr-16" value="" style="endArrow=classic;html=1;exitX=0.5;exitY=1;exitDx=0;exitDy=0;entryX=0.5;entryY=0;entryDx=0;entryDy=0;" edge="1" parent="1" source="AH76wavVF_hNOm2PVudr-6" target="AH76wavVF_hNOm2PVudr-8">
          <mxGeometry width="50" height="50" relative="1" as="geometry">
            <mxPoint x="394.5" y="290" as="sourcePoint" />
            <mxPoint x="394.5" y="360" as="targetPoint" />
          </mxGeometry>
        </mxCell>
        <mxCell id="AH76wavVF_hNOm2PVudr-18" value="" style="endArrow=classic;html=1;exitX=0.5;exitY=1;exitDx=0;exitDy=0;entryX=0.5;entryY=0;entryDx=0;entryDy=0;" edge="1" parent="1" source="AH76wavVF_hNOm2PVudr-7" target="AH76wavVF_hNOm2PVudr-8">
          <mxGeometry width="50" height="50" relative="1" as="geometry">
            <mxPoint x="310" y="360" as="sourcePoint" />
            <mxPoint x="405" y="380" as="targetPoint" />
          </mxGeometry>
        </mxCell>
        <mxCell id="AH76wavVF_hNOm2PVudr-19" value="转换算法F" style="text;html=1;strokeColor=none;fillColor=none;align=center;verticalAlign=middle;whiteSpace=wrap;rounded=0;" vertex="1" parent="1">
          <mxGeometry x="265" y="190" width="70" height="20" as="geometry" />
        </mxCell>
        <mxCell id="AH76wavVF_hNOm2PVudr-20" value="转换算法G" style="text;html=1;strokeColor=none;fillColor=none;align=center;verticalAlign=middle;whiteSpace=wrap;rounded=0;" vertex="1" parent="1">
          <mxGeometry x="465" y="190" width="70" height="20" as="geometry" />
        </mxCell>
      </root>
    </mxGraphModel>
  </diagram>
</mxfile>
